<?xml version="1.0" standalone="no"?>
<!DOCTYPE svg PUBLIC "-//W3C//DTD SVG 20010904//EN"
 "http://www.w3.org/TR/2001/REC-SVG-20010904/DTD/svg10.dtd">
<svg version="1.0" xmlns="http://www.w3.org/2000/svg"
 width="848.000000pt" height="848.000000pt" viewBox="0 0 848.000000 848.000000"
 preserveAspectRatio="xMidYMid meet">
<metadata>
Created by potrace 1.14, written by Peter Selinger 2001-2017
</metadata>
<g transform="translate(0.000000,848.000000) scale(0.100000,-0.100000)"
fill="#000000" stroke="none">
<path d="M3268 8463 c-14 -15 -15 -36 -10 -148 15 -348 5 -521 -39 -672 -11
-37 -22 -72 -23 -78 -27 -99 -218 -441 -271 -485 -8 -7 -15 -17 -15 -22 0 -22
-183 -207 -305 -307 -150 -124 -155 -128 -220 -191 -213 -205 -392 -463 -504
-725 -12 -27 -26 -58 -31 -67 -6 -10 -10 -23 -10 -29 0 -6 -6 -25 -14 -42 -16
-39 -64 -200 -72 -242 -2 -16 -7 -37 -9 -45 -2 -8 -7 -31 -10 -50 -3 -19 -7
-46 -10 -60 -11 -59 -22 -151 -27 -237 -1 -14 -21 -22 -70 -28 -209 -26 -336
-73 -426 -159 -141 -134 -184 -292 -141 -521 10 -55 21 -111 23 -125 2 -14 12
-64 20 -112 15 -84 43 -241 50 -283 2 -11 7 -38 11 -60 4 -22 9 -49 11 -60 2
-11 9 -47 15 -80 6 -33 13 -69 14 -81 2 -11 8 -45 14 -75 6 -30 13 -70 17 -89
3 -19 12 -71 20 -115 8 -44 17 -91 19 -105 2 -14 7 -36 10 -50 3 -14 7 -40 10
-59 2 -18 7 -41 9 -50 3 -9 7 -34 11 -56 5 -38 28 -167 40 -230 3 -16 8 -43
11 -60 2 -16 9 -50 14 -75 5 -25 12 -63 15 -85 13 -77 15 -90 20 -115 8 -41
13 -65 19 -101 8 -50 15 -88 26 -144 16 -82 20 -108 26 -150 3 -22 10 -58 15
-80 5 -22 11 -53 14 -70 2 -16 7 -43 10 -60 3 -16 10 -57 16 -90 6 -33 13 -71
16 -85 2 -13 13 -72 23 -130 10 -58 26 -143 35 -190 15 -78 20 -109 29 -165 2
-11 8 -47 14 -80 6 -33 14 -73 17 -90 2 -16 7 -40 9 -51 2 -12 7 -37 10 -55 8
-50 15 -88 26 -144 5 -27 12 -63 15 -80 3 -16 8 -43 11 -60 3 -16 7 -39 8 -50
17 -126 55 -211 127 -285 46 -47 145 -102 209 -116 33 -7 119 -7 157 0 10 2
38 7 63 11 57 9 79 13 112 20 15 4 39 8 55 10 15 2 39 7 53 10 28 6 117 21
170 30 19 3 42 8 50 10 8 2 32 6 52 9 21 3 57 10 80 15 24 5 50 9 58 9 8 0 71
12 140 25 69 14 147 28 174 32 27 3 52 8 55 9 3 2 28 7 55 10 27 4 52 9 56 11
3 2 26 6 50 10 25 4 68 11 95 16 28 6 59 12 70 13 11 2 49 9 85 16 36 7 79 14
95 16 27 4 244 43 320 58 17 4 46 9 65 12 19 2 49 8 65 11 17 4 32 7 35 8 3 1
28 5 55 10 28 4 57 9 65 11 8 1 26 5 40 8 14 3 48 9 75 12 28 4 53 8 56 10 4
2 24 6 45 9 22 4 88 15 148 26 60 11 123 22 140 24 17 3 41 7 54 10 12 3 30 7
40 9 19 4 99 18 122 21 8 2 31 6 50 9 34 7 45 9 120 21 19 3 46 8 60 11 14 3
36 8 50 10 14 3 50 9 80 15 30 6 70 12 89 15 19 2 52 9 75 14 22 5 57 12 76
15 19 3 71 12 115 21 45 8 95 16 113 18 17 3 42 8 54 12 13 4 37 8 53 9 17 1
30 3 30 4 0 1 11 4 25 6 14 2 54 9 90 15 36 7 74 14 85 15 144 19 345 81 397
124 125 103 193 195 234 316 23 66 28 100 29 190 1 61 -1 117 -5 125 -4 8 -10
34 -13 57 -4 22 -8 52 -11 65 -3 12 -8 37 -11 53 -2 17 -9 53 -14 80 -5 28
-12 66 -16 85 -3 19 -8 46 -10 60 -3 14 -7 34 -9 45 -2 11 -7 40 -11 65 -4 25
-9 54 -11 65 -28 141 -41 225 -35 226 65 7 172 29 186 37 6 4 13 7 17 7 4 0
17 7 29 15 98 66 154 159 158 260 2 50 -34 282 -69 450 -8 40 -16 81 -25 145
-2 11 -4 20 -5 20 -1 0 -3 11 -5 25 -1 14 -6 41 -10 60 -4 19 -8 46 -11 60 -2
14 -5 32 -7 40 -7 41 -62 132 -95 160 -48 40 -52 43 -82 56 -78 34 -149 38
-263 14 -32 -6 -61 -10 -63 -7 -6 5 -9 23 -34 162 -27 151 -29 158 -46 255 -9
47 -18 96 -20 110 -5 29 -16 91 -20 105 -3 12 -25 143 -29 170 -2 11 -8 38
-13 60 -13 45 -17 69 -34 178 l-12 77 -48 -5 c-35 -4 -50 -2 -52 7 -3 7 -7 74
-10 148 -3 74 -8 160 -12 190 -10 100 -12 115 -14 115 -1 0 -3 9 -4 20 -2 11
-6 34 -10 50 -3 17 -8 39 -11 50 -39 176 -163 507 -212 566 -7 8 -13 23 -13
31 0 9 -3 18 -7 20 -5 2 -26 32 -47 68 -114 188 -261 358 -495 573 -94 86
-115 100 -141 92 -21 -7 -57 -73 -66 -124 -3 -14 -8 -29 -12 -35 -3 -6 -7 -15
-8 -21 -12 -66 -128 -314 -166 -355 -10 -11 -18 -22 -18 -24 0 -7 -61 -87
-109 -143 -55 -65 -97 -51 -92 30 4 56 4 47 -3 177 -3 63 -8 126 -11 140 -3
14 -7 39 -10 55 -5 27 -27 132 -30 145 -1 3 -5 23 -9 45 -4 22 -11 49 -15 60
-5 11 -23 67 -42 125 -93 294 -275 645 -456 882 -70 92 -262 294 -339 357
-119 98 -335 240 -504 332 -25 13 -47 27 -50 31 -4 4 -19 10 -36 14 -21 4 -34
1 -46 -13z m-1567 -3710 c0 -5 2 -21 5 -38 2 -16 6 -46 8 -65 13 -100 20 -135
40 -221 13 -52 23 -95 22 -96 -1 -1 -55 -11 -101 -18 -11 -2 -36 -7 -55 -11
-19 -4 -59 -7 -88 -6 -145 3 -241 148 -191 286 20 55 49 90 94 114 35 19 24
16 145 41 110 22 120 24 121 14z m4046 1 c-3 -3 -12 -4 -19 -1 -8 3 -5 6 6 6
11 1 17 -2 13 -5z m-44 -11 c-7 -2 -21 -2 -30 0 -10 3 -4 5 12 5 17 0 24 -2
18 -5z m-88 -13 c-3 -5 -12 -10 -18 -10 -7 0 -6 4 3 10 19 12 23 12 15 0z
m-202 -37 c-7 -2 -19 -2 -25 0 -7 3 -2 5 12 5 14 0 19 -2 13 -5z m-46 -9 c-3
-3 -12 -4 -19 -1 -8 3 -5 6 6 6 11 1 17 -2 13 -5z m-80 -10 c-3 -3 -12 -4 -19
-1 -8 3 -5 6 6 6 11 1 17 -2 13 -5z m-67 -14 c-8 -5 -19 -10 -25 -10 -5 0 -3
5 5 10 8 5 20 10 25 10 6 0 3 -5 -5 -10z m-3674 -650 c42 0 61 -4 61 -12 0
-14 8 -58 24 -143 5 -27 11 -63 14 -80 3 -16 8 -43 11 -60 20 -111 46 -253 48
-270 5 -34 18 -109 23 -130 4 -23 23 -126 52 -295 21 -116 24 -135 41 -225 5
-27 11 -63 14 -80 8 -50 26 -149 31 -175 3 -14 7 -38 10 -55 2 -16 7 -41 9
-55 3 -14 10 -52 15 -85 6 -33 13 -71 16 -85 3 -14 12 -65 20 -115 21 -119 28
-158 30 -170 2 -5 5 -23 8 -40 12 -75 25 -143 30 -170 8 -35 18 -94 22 -128 3
-17 7 -43 10 -57 3 -14 7 -38 10 -55 3 -16 10 -52 15 -80 6 -27 11 -62 12 -77
1 -16 6 -28 11 -28 4 0 6 -4 3 -9 -3 -4 1 -42 8 -82 8 -41 17 -90 20 -109 3
-19 8 -46 11 -60 2 -14 11 -63 19 -110 8 -47 19 -106 24 -133 5 -26 10 -51 11
-55 1 -9 11 -8 101 8 41 7 84 14 95 16 11 1 21 3 23 4 1 2 10 3 20 4 9 1 31 5
47 9 17 3 46 9 65 11 19 3 45 8 57 10 11 3 43 8 70 12 53 9 62 11 66 13 1 1
18 4 37 7 19 2 71 11 115 19 44 8 91 17 105 19 14 3 25 5 25 6 0 1 11 3 25 4
14 2 39 6 55 9 17 3 57 11 90 16 33 6 69 12 80 14 11 3 40 8 65 12 25 4 52 9
61 10 9 2 32 6 50 9 19 3 72 13 119 21 47 9 94 18 105 19 86 14 134 22 138 25
1 2 16 4 32 6 27 4 50 7 125 22 14 2 61 11 105 18 44 8 91 16 105 19 14 3 42
7 64 10 21 4 41 8 45 10 3 2 26 7 51 10 25 3 56 8 70 11 14 2 63 11 110 19 47
9 97 18 111 21 14 3 41 7 60 9 19 3 34 5 34 6 0 2 36 9 75 14 19 2 42 7 50 9
8 3 33 8 55 11 22 3 90 14 150 25 163 30 167 31 200 36 17 3 41 7 55 10 13 3
63 11 110 20 47 8 96 17 110 19 36 7 139 24 180 31 19 3 42 8 50 10 8 2 31 7
50 10 33 5 106 18 175 30 17 2 40 7 51 9 12 2 39 7 60 10 22 4 75 13 119 22
44 8 96 17 115 20 19 3 42 7 50 9 15 5 69 13 119 20 14 2 26 4 26 5 0 1 11 4
25 6 32 4 75 12 75 14 0 1 14 3 32 6 26 3 33 0 39 -18 10 -33 8 -133 -4 -154
-6 -11 -11 -23 -12 -29 -14 -87 -143 -193 -254 -211 -45 -7 -71 -11 -109 -20
-16 -3 -38 -7 -50 -9 -12 -2 -62 -11 -112 -20 -49 -9 -101 -18 -115 -20 -14
-3 -34 -6 -45 -9 -11 -2 -36 -6 -55 -10 -19 -3 -46 -8 -60 -11 -13 -3 -42 -7
-65 -11 -22 -3 -71 -12 -110 -20 -38 -8 -86 -17 -105 -20 -19 -3 -57 -9 -85
-15 -81 -15 -88 -16 -139 -23 -27 -4 -52 -9 -55 -11 -3 -1 -24 -6 -46 -9 -22
-4 -76 -13 -120 -21 -44 -8 -96 -17 -115 -20 -19 -3 -42 -8 -50 -10 -8 -2 -33
-7 -55 -10 -22 -4 -49 -8 -60 -10 -11 -2 -33 -7 -50 -10 -16 -3 -64 -12 -105
-20 -41 -7 -91 -16 -110 -19 -19 -3 -60 -10 -90 -16 -30 -6 -70 -13 -89 -16
-18 -3 -43 -8 -55 -10 -11 -2 -36 -7 -55 -10 -18 -3 -43 -8 -55 -10 -11 -3
-33 -7 -47 -9 -14 -2 -75 -13 -135 -24 -131 -24 -182 -33 -209 -36 -11 -1 -27
-5 -35 -8 -8 -2 -62 -13 -120 -22 -58 -10 -114 -19 -125 -21 -31 -7 -188 -35
-210 -39 -11 -1 -47 -7 -80 -13 -33 -6 -73 -14 -90 -17 -16 -2 -41 -7 -55 -10
-14 -3 -37 -8 -52 -10 -32 -5 -242 -43 -278 -50 -14 -3 -40 -8 -59 -11 -50 -6
-90 -14 -139 -25 -23 -5 -59 -12 -80 -15 -20 -2 -59 -9 -87 -15 -87 -16 -98
-19 -135 -24 -20 -3 -47 -8 -60 -11 -74 -15 -101 -14 -140 6 -22 11 -40 27
-40 34 0 8 -4 16 -9 18 -10 3 -15 24 -27 98 -3 19 -7 42 -9 50 -3 8 -7 32 -11
54 -3 21 -8 48 -10 60 -2 11 -7 35 -9 51 -11 62 -25 141 -30 163 -2 13 -13 76
-24 140 -12 64 -23 128 -26 142 -3 14 -10 52 -16 85 -5 33 -12 71 -15 85 -6
33 -25 139 -30 170 -6 32 -11 59 -17 86 -3 12 -8 38 -11 58 -3 19 -13 75 -21
123 -9 49 -18 100 -20 115 -2 15 -6 35 -9 45 -3 10 -8 36 -11 58 -3 23 -8 52
-11 65 -3 14 -7 39 -10 55 -3 17 -9 53 -15 80 -16 83 -17 91 -23 131 -3 22 -8
50 -11 64 -9 46 -16 85 -25 135 -10 59 -16 93 -36 195 -8 41 -16 91 -19 110
-3 19 -8 46 -11 60 -3 13 -7 40 -10 60 -2 19 -7 42 -10 51 -2 9 -7 33 -9 53
-3 19 -9 55 -14 78 -10 41 -13 63 -25 138 -3 19 -8 46 -11 60 -3 14 -9 50 -15
80 -6 30 -12 66 -15 80 -3 14 -7 39 -10 55 -4 27 -30 172 -39 220 -25 130 -36
197 -31 205 3 5 19 5 38 -1 17 -5 59 -9 93 -9z m5255 -559 c0 -9 2 -23 4 -31
1 -8 6 -35 10 -59 3 -23 10 -53 15 -66 5 -13 6 -25 3 -28 -3 -3 -2 -11 3 -18
4 -7 8 -26 10 -43 1 -17 5 -44 8 -61 3 -16 10 -55 16 -85 6 -30 12 -66 15 -80
3 -13 7 -40 10 -60 3 -20 7 -47 10 -60 5 -26 12 -67 19 -113 3 -18 -1 -30 -12
-36 -24 -12 -151 -36 -157 -29 -6 6 -14 37 -20 83 -2 17 -6 41 -9 55 -2 14 -7
43 -10 65 -4 22 -9 51 -12 65 -8 33 -13 64 -18 97 -3 16 -10 55 -16 88 -6 33
-13 78 -16 100 -3 22 -7 46 -10 54 -2 8 -7 30 -10 50 -3 20 -9 55 -14 79 -6
35 -5 42 9 43 9 0 23 2 31 4 8 2 31 7 50 11 19 3 37 7 38 9 9 9 52 -20 53 -34z"/>
</g>
</svg>
