<svg width="41" height="53" fill="none" xmlns="http://www.w3.org/2000/svg"><path d="M17.126 5.105c-.161.179-.223.44-.341.647-.17.299-.327.584-.465.901-.196.45-.553.876-.812 1.3-.385.627-.568 1.147-.679 1.87-.084.546-.39 1.086-.665 1.557-.339.58-.805 1.147-1.367 1.522-.213.143-.45.252-.659.401-.325.234-.545.623-.745.962-.206.349-.422.692-.628 1.042-.32.543-.755.803-1.204 1.207-.494.445-.748 1.305-.748 1.952 0 .456-.148.895-.274 1.328-.095.327-.087.657-.21.99-.221.6 1.093.376 1.407.373.588-.004.876-.09 1.341-.4.539-.36 1.002-.827 1.609-1.077.433-.18.969-.238 1.427-.332 1.536-.314 3.23-.14 4.784-.14h3.697c.605 0-1.198.166-1.8.236-1.9.222-3.79.295-5.7.344-2.267.058-4.53.204-6.797.223-.053 0-.206.039-.153.044.931.1 1.948-.004 2.873-.063 2.745-.176 5.468-.67 8.223-.67.54 0 .925-.138 1.443-.2.304-.036.609-.055.914-.073.113-.006.528.026.198-.083-1.658-.544-3.255-1.71-4.16-3.21-.745-1.236.292-2.135 1.172-2.87.016-.013.71-.583.446-.322-.882.873-1.9 1.639-2.879 2.396a41.87 41.87 0 01-3.67 2.541c-.334.206-.678.435-1.031.612-.145.072-.036-.124-.016-.188.108-.35.264-.651.452-.965.524-.875.96-1.772 1.36-2.71 1.053-2.47 1.94-5.024 3.201-7.4.146-.275.325-.824.57-1.04.125-.11.166.096.198.184.164.451.283 1.064.363 1.51.202 1.124.29 2.236.261 3.379-.026 1.072-.046 2.23-.325 3.274-.038.142-.09.26-.095.408-.007.21.017-.42.025-.631.038-.966.07-1.932.083-2.898.01-.721-.044-1.471.064-2.188.01-.07.057-.275.057-.204 0 .505-.026 1.01-.083 1.513-.235 2.084-.67 4.201-1.23 6.223-.027.1-.073.568-.286.452-.202-.11-.4-.215-.611-.306-.11-.046-.26-.083-.354-.162-.18-.152.092-.761.134-.882.318-.93.79-1.787 1.283-2.634.731-1.256 1.49-2.497 2.274-3.72.019-.03.954-1.408.969-1.386.125.195.025.76.025.969V15.07c0 .17-.111.86.032 1.003.031.032.06-.076.057-.12-.043-.677-.297-1.36-.452-2.014-.414-1.75-.695-3.582-.726-5.382-.005-.257.02-.882.172-.287.063.246.134.472.287.675" stroke="#8F0092" stroke-width="3" stroke-linecap="round"></path><path d="M20.62 17.185c.478.204 1.035.186 1.493.412.274.135.59.206.882.289.47.133.73.498 1.268.504.71.007 1.334-.103 1.849-.638.387-.402.494-1.081.966-1.427.366-.267.803-.532 1.14-.084.224.297.321.705.387 1.07.055.31.21.576.366.846.105.183.258.328.258.553 0 .228-.013.46.003.687.017.242.29.766.512.891.043.024.294.262.251.307-.164.17-.857.12-1.072.137-.238.019-.48.062-.719.067-.825.018-1.653 0-2.479 0-.223 0-.348.061-.553.113-.327.082-.77.071-1.105.077-.296.006-.525.06-.81.12-.675.14 1.206-.693 1.848-.948.578-.23 1.185-.158 1.756-.362.175-.063.35-.06.506-.173.048-.035.213-.107.159-.081-.95.464-1.905.9-2.818 1.44-.39.231-.84.48-1.197.769-.034.027.083-.024.125-.032.192-.037.392-.036.587-.05.326-.022.65-.049.976-.049.436 0 1.728-.117 1.296-.176-.68-.092-1.42-.014-2.103-.014h-3.045c-.402 0-.802-.016-1.201.035-.518.066-1.03.219-1.553.219h-1.221c-.793 0-1.549.19-2.337.19-.637 0-1.264.236-1.91.303-.625.065-1.192.125-1.81.26-.797.175-1.464.573-2.232.846-.464.165-.584.966-.889 1.282-.147.153-1.147-.487-1.183-.697a.728.728 0 01.088-.497c.102-.154.348.85.383.983.085.326.222.346.516.472.47.202.968.201 1.475.12.976-.158 2.067-.32 2.981-.726 1.134-.505 2.304-.75 3.52-.976.962-.178 1.902-.43 2.863-.61.555-.103 1.095-.234 1.658-.285.357-.031.73.012 1.082-.038.292-.042.542-.183.841-.183.34 0 .597-.023.916-.113.355-.1.706-.078 1.072-.078" stroke="#8F0092" stroke-width="3" stroke-linecap="round"></path><path d="M31.915 16.41a14.081 14.081 0 00-3.36-4.669l-1.18-1.082a.327.327 0 00-.527.134l-.526 1.512c-.329.948-.933 1.917-1.788 2.869a.253.253 0 01-.166.081.223.223 0 01-.174-.06.238.238 0 01-.081-.195c.15-2.44-.58-5.192-2.177-8.187-1.321-2.489-3.157-4.43-5.45-5.784L14.81.045a.325.325 0 00-.486.295l.09 1.946c.06 1.33-.094 2.504-.459 3.481a11.56 11.56 0 01-1.905 3.303c-.57.693-1.215 1.32-1.925 1.869a14.29 14.29 0 00-4.065 4.924 14.094 14.094 0 00-1.467 6.253c0 1.913.377 3.766 1.123 5.512a14.24 14.24 0 007.595 7.522 14.262 14.262 0 005.548 1.111c1.925 0 3.79-.373 5.549-1.106a14.13 14.13 0 004.535-3.028 14.03 14.03 0 004.182-10.006 13.95 13.95 0 00-1.211-5.71zm-4.909 13.752a11.49 11.49 0 01-8.146 3.34 11.49 11.49 0 01-8.146-3.34C8.546 28.009 7.35 25.155 7.35 22.12c0-1.763.397-3.453 1.18-5.026a11.464 11.464 0 013.274-3.968 14.172 14.172 0 002.375-2.302 14.358 14.358 0 002.359-4.093c.226-.61.39-1.242.49-1.885.977.9 1.796 1.986 2.48 3.259 1.354 2.537 1.978 4.794 1.857 6.715a3 3 0 003.153 3.186 2.962 2.962 0 002.067-.989c.539-.604 1.005-1.22 1.394-1.848a11.176 11.176 0 011.419 2.367 11.23 11.23 0 01.972 4.584c0 3.035-1.195 5.893-3.364 8.04z" fill="#000"></path><path fill="#fff" d="M4.015 27.897l29.757-5.289 3.603 20.278L7.62 48.174z"></path><path d="M35.905 29.481l-.845.153-.916-5.075a3.822 3.822 0 00-4.435-3.079l-.779.14-.333-1.886a2.576 2.576 0 00-2.99-2.077L3.08 21.723a3.131 3.131 0 00-2.532 3.592l.008.043 4.486 24.857a2.576 2.576 0 002.99 2.076l26.386-4.762a3.822 3.822 0 003.079-4.435l-.917-5.081.844-.153a2.014 2.014 0 001.623-2.338l-.797-4.42a2.026 2.026 0 00-2.345-1.62zm-32.51-6.01l22.527-4.066c.43-.078.85.207.927.637l.334 1.894-23.306 4.206a1.355 1.355 0 01-1.572-1.092 1.361 1.361 0 011.09-1.58zm32.346 19.933a2.046 2.046 0 01-1.647 2.372L7.71 50.538a.8.8 0 01-.928-.644L2.798 27.826c.443.123.914.15 1.395.064l25.832-4.663c1.106-.2 2.172.54 2.372 1.647l.916 5.075-5.963 1.076a2.014 2.014 0 00-1.623 2.338l.797 4.42a2.014 2.014 0 002.338 1.622l5.963-1.076.916 5.075zm1.552-7.565a.234.234 0 01-.191.275l-8.548 1.543a.234.234 0 01-.275-.191l-.797-4.42a.238.238 0 01.19-.275l8.548-1.542a.238.238 0 01.275.19l.798 4.42z" fill="#000"></path><path d="M27.717 20.138c.002.016.026.095.038.084M9.04 20.143c-.06.431-.379 1.067-.173 1.504.051.109.065.164.165.068.132-.127.276-.22.428-.322.492-.334 1.078-.613 1.662-.737.152-.032.28-.113.421-.172.303-.125.633-.186.95-.26.44-.102.9.021 1.337-.08.483-.113 1.107.055 1.535-.265.054-.04.261-.13.085-.038-.188.097-.406.148-.604.218-.638.225-1.274.397-1.935.542-.347.076-.694.167-1.046.22-.043.006-.121 0-.148.047-.067.112.082.4.17.465.324.244 1.023.102 1.375.043a3.466 3.466 0 001.622-.712c.265-.214.408-.39.75-.516.269-.1.546-.119.83-.119.69 0 1.36.19 2.053.19.646 0 1.23-.05 1.86-.192.346-.079.69-.15 1.039-.212.439-.077.84-.09 1.29-.09.312 0 .637-.015.846.25.353.444.84.655 1.427.533.52-.108.998-.403 1.533-.403.367 0 .71-.114.915-.436.09-.141-.073-.906-.237-.775-.261.21-.19.678-.619.678-.49 0-.94.114-1.429.114h-1.389c-.19 0-.347.017-.514-.074-.142-.077-.257-.096-.402-.154" stroke="#8F0092" stroke-width="3" stroke-linecap="round"></path><path d="M9.356 22.158c-.134 0-.246-.002-.372.03-.023.006-.098.003-.11.03-.006.014.015.053.034.044.046-.024 0-.142 0-.181 0-.061-.024-.117-.024-.181v-.183c0-.059-.036.038-.04.053-.01.044-.007.09-.007.134 0 .122.007.243.012.363.002.064.023.116.023.18 0 .044-.015.117.012.157.027.039.024-.079.024-.087-.002-.087-.032-.166-.045-.251-.005-.035 0-.069-.014-.102-.026-.06-.018-.157-.023-.224-.006-.066 0-.134 0-.2v-.064.24c0 .202-.078.396.004.593.028.066.069.12.106.18.024.038.035.087.066.118M27.322 18.81c-.006-.07-.013-.194-.056-.254-.04-.055-.089-.044-.114.024-.02.057-.018.091-.06.142-.045.056-.05.106-.123.126a.45.45 0 00-.137.066c-.038.027-.105.075-.152.084-.143.026-.261.078-.398.13-.181.07-.323.205-.493.296-.108.057-.206.114-.323.152-.061.02-.125.016-.186.03-.052.013-.091.03-.148.03a.19.19 0 01-.13-.04c-.032-.023-.104-.008-.144-.008-.093 0-.189-.007-.282 0-.043.004-.082.035-.125.035h-.627c-.086 0-.16-.023-.244-.034-.03-.004-.065.007-.094-.002-.021-.006-.024-.023-.054-.023-.076 0-.091-.017-.141-.07-.002-.002-.043-.037-.043-.021 0 .011.067.017.074.018.044.006.09 0 .134.005.048.007.085.021.135.021h.288c.121 0 .249-.041.369-.061.087-.014.154-.033.245-.033.122 0 .243.012.365.012.076 0 .153.006.226-.013.117-.029.224-.087.336-.129.2-.074.421-.078.622-.14.035-.01.074-.009.11-.015.061-.01.11-.063.17-.068.06-.006.107-.026.163-.048.046-.018.1-.014.142-.035" stroke="#8F0092" stroke-width="3" stroke-linecap="round"></path><path d="M23.609 19.4c.028.05.06.043.103.07.04.025.03.05.041.088.018.066.149.01.198.042M27.157 20.272c.052.02.075.083.124.105a.261.261 0 00.119.025c.05 0 .126.014.17-.006.03-.013.078-.053.106-.053" stroke="#8F0092" stroke-width="3" stroke-linecap="round"></path><path d="M27.676 20.343a.395.395 0 01.13-.116c.048-.024.128.044.165.069" stroke="#8F0092" stroke-width="3" stroke-linecap="round"></path><path d="M28.017 20.495c.09.018.175.06.267.073.032.005.063.02.095.022.035.002.1-.011.135.005.018.008.017.022.02.04.006.03.022.054.037.08.02.032.013.067.013.104 0 .028.006.064-.004.09-.016.04-.052.078-.062.119-.013.05-.022.082-.022.133 0 .038-.013.072-.022.108" stroke="#8F0092"></path><path d="M28.238 21.114c.12-.008.24-.014.361-.014M28.643 21.063c.016.001.099.029.094.047-.01.033-.093.034-.123.034" stroke="#8F0092" stroke-linecap="round"></path><path d="M16.5 10.5c-.5 2.5-7 6-6.5 9" stroke="#000"></path></svg>
