<svg version="1.1" id="Layer_1" xmlns="http://www.w3.org/2000/svg" xmlns:xlink="http://www.w3.org/1999/xlink" x="0px" y="0px" viewBox="0 0 512 512" style="enable-background:new 0 0 512 512;" xml:space="preserve">
<g>
	<g>
		<path d="M384,351.086c-36.757,0-67.812,24.785-77.391,58.514h-17.695V307.2h65.829c84.695,0,153.6-68.905,153.6-153.6
			S439.438,0,354.743,0H332.8v131.657H98.743v-7.314c0-36.298-29.531-65.829-65.829-65.829H3.657V102.4h29.257
			c12.099,0,21.943,9.844,21.943,21.943V153.6c0,84.695,68.905,153.6,153.6,153.6h36.571v102.4h-17.695
			c-9.577-33.729-40.634-58.514-77.391-58.514c-44.364,0-80.457,36.093-80.457,80.457S105.579,512,149.943,512
			c36.757,0,67.812-24.785,77.391-58.514h79.277C316.188,487.215,347.244,512,384.001,512c44.364,0,80.457-36.093,80.457-80.457
			S428.364,351.086,384,351.086z M149.943,468.114c-20.166,0-36.571-16.406-36.571-36.571s16.406-36.571,36.571-36.571
			c20.165,0,36.571,16.406,36.571,36.571S170.108,468.114,149.943,468.114z M208.457,263.314c-52.983,0-97.315-37.755-107.51-87.771
			h275.738V46.09c50.017,10.195,87.771,54.527,87.771,107.51c0,60.496-49.218,109.714-109.714,109.714H208.457z M384,468.114
			c-20.165,0-36.571-16.406-36.571-36.571s16.406-36.571,36.571-36.571s36.571,16.406,36.571,36.571S404.165,468.114,384,468.114z"></path>
	</g>
</g>
<g>
</g>
<g>
</g>
<g>
</g>
<g>
</g>
<g>
</g>
<g>
</g>
<g>
</g>
<g>
</g>
<g>
</g>
<g>
</g>
<g>
</g>
<g>
</g>
<g>
</g>
<g>
</g>
<g>
</g>
</svg>
