<svg version="1.1" id="Capa_1" xmlns="http://www.w3.org/2000/svg" xmlns:xlink="http://www.w3.org/1999/xlink" x="0px" y="0px" viewBox="0 0 58.393 58.393" style="enable-background:new 0 0 58.393 58.393;" xml:space="preserve">
<g>
	<circle cx="36.504" cy="21.827" r="1"></circle>
	<circle cx="41.722" cy="19.179" r="1"></circle>
	<circle cx="40.41" cy="21.695" r="1"></circle>
	<circle cx="14.256" cy="17.06" r="1"></circle>
	<circle cx="20.088" cy="15.736" r="1"></circle>
	<circle cx="16.865" cy="14.736" r="1"></circle>
	<circle cx="12.006" cy="33.124" r="1"></circle>
	<circle cx="15.256" cy="30.8" r="1"></circle>
	<circle cx="16.865" cy="32.8" r="1"></circle>
	<path d="M26.184,11.787c0.188-0.043,0.377-0.009,0.53,0.087c0.079,0.049,0.218,0.161,0.259,0.358
		c0.289,1.4,1.701,2.294,3.153,2.001c0.189-0.042,0.377-0.009,0.53,0.087c0.079,0.049,0.218,0.161,0.259,0.358
		c0.142,0.689,0.555,1.276,1.163,1.653c0.43,0.267,0.921,0.404,1.423,0.404c0.188,0,0.378-0.019,0.566-0.058
		c0.541-0.112,0.889-0.642,0.776-1.183c-0.112-0.54-0.64-0.885-1.182-0.776c-0.19,0.04-0.376,0.008-0.53-0.087
		c-0.079-0.049-0.218-0.161-0.258-0.358c-0.143-0.689-0.556-1.277-1.164-1.653c-0.591-0.368-1.298-0.491-1.989-0.347
		c-0.37,0.079-0.724-0.124-0.79-0.446c-0.143-0.689-0.556-1.277-1.164-1.653c-0.591-0.367-1.3-0.491-1.99-0.347
		c-0.541,0.112-0.889,0.642-0.776,1.183C25.113,11.55,25.638,11.897,26.184,11.787z"></path>
	<path d="M30.14,25.942c-0.552,0.012-0.99,0.47-0.979,1.021c0.003,0.116-0.064,0.192-0.112,0.193
		c-1.166,0.026-2.093,1.028-2.067,2.235c0.003,0.116-0.064,0.192-0.112,0.193c-0.578,0.013-1.111,0.261-1.504,0.697
		c-0.376,0.42-0.576,0.966-0.563,1.539c0.012,0.544,0.457,0.978,0.999,0.978c0.008,0,0.015,0,0.023,0
		c0.552-0.013,0.99-0.47,0.977-1.022c-0.001-0.074,0.038-0.19,0.112-0.191c1.166-0.026,2.094-1.029,2.068-2.236
		c-0.003-0.116,0.064-0.191,0.111-0.192c1.166-0.026,2.094-1.029,2.068-2.236C31.149,26.369,30.719,25.972,30.14,25.942z"></path>
	<path d="M22.976,22.292c-0.152,0.345-0.521,0.517-0.821,0.385c-0.644-0.283-1.362-0.288-2.021-0.011
		c-0.641,0.269-1.151,0.773-1.436,1.421c-0.222,0.505,0.007,1.096,0.513,1.317c0.131,0.058,0.268,0.085,0.402,0.085
		c0.384,0,0.751-0.223,0.916-0.598c0.078-0.176,0.212-0.312,0.378-0.382c0.086-0.036,0.258-0.083,0.442-0.003
		c1.31,0.579,2.861-0.055,3.458-1.409c0.078-0.176,0.212-0.312,0.378-0.382c0.086-0.036,0.258-0.083,0.442-0.003
		c0.644,0.283,1.362,0.288,2.021,0.011c0.641-0.269,1.151-0.773,1.436-1.421c0.222-0.505-0.007-1.096-0.513-1.317
		c-0.506-0.224-1.095,0.006-1.318,0.513c-0.078,0.176-0.212,0.312-0.378,0.382c-0.085,0.036-0.257,0.082-0.442,0.003
		c-0.646-0.283-1.363-0.288-2.022-0.011C23.769,21.141,23.26,21.645,22.976,22.292z"></path>
	<path d="M57.51,18.848c-0.007-0.019-0.022-0.031-0.03-0.05c-0.276-1.106-0.629-2.144-1.059-3.111
		c-0.014-0.047-0.042-0.089-0.063-0.135c-2.29-5.026-6.57-8.22-11.735-10.163c-0.032-0.016-0.055-0.042-0.09-0.055
		c-0.024-0.008-0.048-0.004-0.072-0.01c-2.205-0.815-4.566-1.407-6.995-1.823c-0.006-0.002-0.009-0.007-0.015-0.009
		c-0.13-0.046-0.264-0.063-0.394-0.054c-4.991-0.812-10.241-0.896-15.019-0.647c-0.013,0-0.023-0.007-0.036-0.007
		c-0.021,0-0.039,0.011-0.061,0.012c-4.286,0.227-8.185,0.715-11.145,1.18C8.234,4.38,6.31,6.444,6.053,9.012
		c0,0.001,0,0.003,0,0.003c-0.005,0.052-0.02,0.099-0.024,0.15L4.527,28.361c-1.821,1.161-5.663,4.307-4.204,9.463
		c0.515,1.818,1.356,2.887,2.501,3.174c0.209,0.053,0.55,0.227,0.5,0.545c-0.386,2.448-1.042,6.965-1.091,9.713
		c-0.024,1.323,0.411,2.433,1.258,3.207c1.2,1.098,2.888,1.262,3.782,1.262c0.314,0,0.531-0.021,0.594-0.027
		c0.353-0.023,3.474-0.291,4.504-2.447c0.627-1.312,0.297-2.912-0.972-4.751l16.396-6.647c0.003,0.002,0.007,0.002,0.01,0.004
		c0.195,0.103,0.404,0.184,0.62,0.25c0.034,0.011,0.065,0.028,0.1,0.038c0.25,0.069,0.512,0.115,0.787,0.134
		c0.228,0.014,0.452,0.014,0.672,0.004c0.049-0.002,0.098-0.009,0.148-0.012c0.187-0.013,0.37-0.034,0.549-0.065
		c0.045-0.008,0.09-0.016,0.135-0.025c0.211-0.041,0.416-0.094,0.613-0.159c0.013-0.004,0.027-0.008,0.04-0.012
		c0.731-0.248,1.364-0.653,1.838-1.207c0.18-0.21,0.329-0.445,0.465-0.691c0.004-0.006,0.007-0.013,0.01-0.02
		c0.132-0.242,0.242-0.503,0.331-0.78c0.003-0.009,0.007-0.015,0.01-0.024l18.779-7.615c0.125-0.042,3.097-1.074,4.619-4.198
		C58.687,25.084,58.683,22.183,57.51,18.848z M55.004,20.893c-0.348-0.762-0.727-1.512-1.135-2.25l1.184-1.013
		c0.284,0.787,0.522,1.615,0.698,2.495c0.176,0.879,0.024,1.76-0.376,2.504C55.388,22.082,55.283,21.502,55.004,20.893z
		 M54.219,15.713l-1.398,1.196c-0.747-1.131-1.602-2.214-2.599-3.226l1.218-1.768C52.536,13.019,53.475,14.278,54.219,15.713z
		 M44.111,9.435l0.669-1.846c1.893,0.791,3.633,1.774,5.156,2.982l-1.201,1.744C47.427,11.235,45.898,10.267,44.111,9.435z
		 M37.2,7.252l0.586-1.681c1.769,0.329,3.49,0.758,5.123,1.311l-0.643,1.775C40.757,8.093,39.071,7.623,37.2,7.252z M30.003,6.414
		V4.721c1.935,0.084,3.876,0.25,5.78,0.521L35.202,6.91C33.6,6.673,31.874,6.504,30.003,6.414z M26.78,4.651
		c0.406,0,0.814,0.003,1.223,0.01v1.687c-1.57-0.028-3.239-0.001-5,0.077V4.742C24.24,4.687,25.5,4.651,26.78,4.651z M15.003,7.087
		V5.412c1.837-0.224,3.859-0.423,6-0.562v1.681C19.115,6.654,17.112,6.841,15.003,7.087z M11.108,5.953
		c0.591-0.093,1.231-0.187,1.895-0.28v1.656c-1.484,0.195-3.04,0.429-4.635,0.686C8.872,6.938,9.875,6.147,11.108,5.953z
		 M10.568,52.385c-0.447,0.941-2.243,1.274-2.875,1.32c-0.479,0.055-2.034,0.031-2.853-0.718c-0.422-0.387-0.622-0.941-0.607-1.695
		c0.047-2.627,0.688-7.04,1.067-9.437c0.202-1.281-0.634-2.457-1.988-2.797c-0.378-0.095-0.775-0.76-1.063-1.779
		c-1.171-4.138,2.22-6.596,3.732-7.461l0.459-0.263l1.522-19.45c5.287-0.874,9.931-1.409,14.01-1.651
		c0.011,0,0.02,0.006,0.031,0.006c0.018,0,0.033-0.009,0.051-0.01c5.398-0.316,9.812-0.124,13.451,0.452
		c0.019,0.008,0.031,0.023,0.051,0.03c0.109,0.038,0.22,0.056,0.329,0.056c0.032,0,0.062-0.011,0.094-0.015
		c2.441,0.416,4.515,1.012,6.305,1.741c0.076,0.056,0.151,0.115,0.245,0.149c0.067,0.024,0.135,0.026,0.203,0.035
		c2.203,0.951,3.947,2.115,5.365,3.414c0.07,0.11,0.162,0.208,0.276,0.287c0.023,0.016,0.048,0.021,0.072,0.035
		c2.218,2.143,3.61,4.619,4.74,7.09c0.883,1.929-1.665,3.369-1.956,3.525l-18.954,7.881l-0.123,0.487
		c-0.133,0.53-0.137,1.102-0.013,1.654c0.267,1.182,0.326,2.176,0.189,2.957l-0.023,0.113c-0.177,0.847-0.6,1.343-1.114,1.624
		c-0.505,0.264-1.073,0.32-1.465,0.321c-0.094-0.001-0.188,0-0.279-0.007c-0.176-0.012-0.335-0.046-0.482-0.097
		c-0.014-0.005-0.028-0.01-0.042-0.015c-0.145-0.055-0.278-0.127-0.397-0.222l-0.07-0.056c-0.057-0.052-0.114-0.103-0.165-0.166
		c-0.581-0.715-0.7-2.093-0.564-3.069l0.24-1.732l-16.267,6.764c-1.863,0.724-2.96,1.707-3.353,3.006
		c-0.417,1.381,0.027,2.976,1.36,4.873C10.307,50.418,10.941,51.598,10.568,52.385z M10.263,45.272
		c0.2-0.662,0.928-1.241,2.185-1.729l13.254-5.511c0.052,0.706,0.21,1.527,0.595,2.269l-15.877,6.437
		C10.204,46.164,10.142,45.67,10.263,45.272z M55.737,26.569c-1.142,2.372-3.455,3.199-3.529,3.227L34.389,37.02
		c-0.026-0.674-0.118-1.398-0.297-2.187c-0.021-0.092-0.034-0.184-0.039-0.274l20.274-8.429c0.77-0.32,1.422-0.811,1.961-1.396
		C56.187,25.387,56.01,26.003,55.737,26.569z"></path>
	<path d="M14.046,36.921c4.228,0,7.667-2.738,7.667-6.104c0-2.046-1.002-2.958-1.844-3.363c-0.936-0.45-1.988-0.45-2.823-0.45
		c-1.573,0-9.667,2.023-9.667,5.813C7.379,36.921,10.469,36.921,14.046,36.921z M17.054,29.004c0.004,0,0.008,0,0.012,0
		c0.632,0,1.414,0.002,1.936,0.253c0.213,0.103,0.711,0.342,0.711,1.561c0,2.225-2.595,4.104-5.667,4.104
		c-4.667,0-4.667-0.445-4.667-2.104C9.379,31.038,15.511,29.004,17.054,29.004z"></path>
	<path d="M16.365,20.695c4.228,0,7.667-2.738,7.667-6.104c0-2.046-1.002-2.958-1.844-3.363c-0.932-0.448-2.012-0.45-2.812-0.45
		c-0.004,0-0.007,0-0.011,0c-1.573,0-9.667,2.023-9.667,5.813C9.698,20.695,12.788,20.695,16.365,20.695z M19.373,12.778
		c0.004,0,0.008,0,0.012,0c0.632,0,1.414,0.002,1.936,0.253c0.213,0.103,0.711,0.342,0.711,1.561c0,2.225-2.595,4.104-5.667,4.104
		c-4.667,0-4.667-0.445-4.667-2.104C11.698,14.812,17.83,12.778,19.373,12.778z"></path>
	<path d="M32.003,21.551c0,4.103,3.089,4.103,6.667,4.103c4.228,0,7.667-2.737,7.667-6.103c0-2.047-1.003-2.959-1.844-3.363
		c-0.933-0.449-2.013-0.451-2.812-0.451c-0.004,0-0.007,0-0.011,0C40.096,15.736,32.003,17.76,32.003,21.551z M41.676,17.736
		c0.004,0,0.008,0,0.012,0c0.632,0,1.415,0.002,1.938,0.253c0.213,0.103,0.711,0.343,0.711,1.562c0,2.224-2.595,4.103-5.667,4.103
		c-4.667,0-4.667-0.445-4.667-2.103C34.003,19.77,40.135,17.736,41.676,17.736z"></path>
</g>
<g>
</g>
<g>
</g>
<g>
</g>
<g>
</g>
<g>
</g>
<g>
</g>
<g>
</g>
<g>
</g>
<g>
</g>
<g>
</g>
<g>
</g>
<g>
</g>
<g>
</g>
<g>
</g>
<g>
</g>
</svg>
