<svg version="1.1" id="Layer_1" xmlns="http://www.w3.org/2000/svg" xmlns:xlink="http://www.w3.org/1999/xlink" x="0px" y="0px" viewBox="0 0 480.006 480.006" style="enable-background:new 0 0 480.006 480.006;" xml:space="preserve">
<g>
	<g>
		<path d="M302.253,124.928c-2.832-2.608-8.962-4.58-14.244,0.68L144.12,268.988c-15.563,15.562-22.407,32.152-20.341,49.313
			c1.895,15.727,10.872,27.622,18.077,34.837c11.468,11.464,24.397,17.276,38.433,17.276c0.015,0,0.03,0,0.045,0
			c21.953-0.02,39.514-14.35,48.016-22.879l216.294-216.25c15.058-15.055,23.095-34.692,22.63-55.31
			c-0.479-19.748-8.854-38.53-22.987-51.566C431.663,11.86,413.41,2.983,395.41,0.647c-15.964-2.071-39.372-0.166-60.218,20.678
			L46.337,310.209c-42.743,42.71-44.854,93.733-5.647,136.489c0.159,0.174,0.325,0.342,0.497,0.505
			c23.004,21.768,47.046,32.804,71.466,32.803c0.015,0,0.034,0,0.049,0c24.483-0.015,47.977-11.089,69.848-32.938l67.314-67.632
			l155.287-155.69c3.9-3.911,3.893-10.242-0.019-14.142c-3.91-3.9-10.241-3.892-14.142,0.018L235.696,365.32l-67.302,67.619
			c-35.938,35.9-75.076,35.89-113.202-0.02c-31.777-34.857-29.909-73.4,5.284-108.566L349.335,35.468
			c26.808-26.805,63.483-14.244,80.963,3.236c0.102,0.103,0.208,0.203,0.314,0.301c10.243,9.387,16.317,23.039,16.667,37.437
			c0.34,15.089-5.618,29.543-16.776,40.699L214.197,333.403c-5.094,5.11-18.593,16.997-33.881,17.011c-0.009,0-0.019,0-0.027,0
			c-8.659,0-16.607-3.736-24.287-11.414c-12.219-12.239-21.747-31.866,2.247-55.857c1.428-1.422,142.736-142.242,144.25-143.739
			l-1.536,1.602C300.963,141.006,310.543,132.85,302.253,124.928z"></path>
	</g>
</g>
<g>
</g>
<g>
</g>
<g>
</g>
<g>
</g>
<g>
</g>
<g>
</g>
<g>
</g>
<g>
</g>
<g>
</g>
<g>
</g>
<g>
</g>
<g>
</g>
<g>
</g>
<g>
</g>
<g>
</g>
</svg>
