<svg version="1.1" id="Layer_1" xmlns="http://www.w3.org/2000/svg" xmlns:xlink="http://www.w3.org/1999/xlink" x="0px" y="0px" viewBox="0 0 512 512" style="enable-background:new 0 0 512 512;" xml:space="preserve">
<g>
	<g>
		<g>
			<circle cx="386.515" cy="174.802" r="5.759"></circle>
			<path d="M332.67,183.117c3.177-0.15,5.63-2.848,5.481-6.026c-0.151-3.178-2.848-5.63-6.024-5.48
				c-3.18,0.15-5.634,2.845-5.485,6.023C326.793,180.814,329.49,183.266,332.67,183.117z"></path>
			<path d="M453.268,177.409c3.18-0.151,5.631-2.844,5.481-6.024c-0.148-3.178-2.846-5.632-6.026-5.482
				c-3.176,0.15-5.628,2.848-5.481,6.027C447.392,175.109,450.091,177.559,453.268,177.409z"></path>
			<path d="M302.973,169.333c3.176-0.152,5.629-2.851,5.478-6.026c-0.15-3.18-2.848-5.632-6.023-5.482
				c-3.179,0.151-5.632,2.844-5.485,6.026C297.095,167.027,299.794,169.484,302.973,169.333z"></path>
			<path d="M484.462,333.757v-85.673c0-2.156-0.856-4.223-2.38-5.748l-13.536-13.538c-6.632-6.628-17.419-6.624-24.052,0.003
				l-7.255,7.257c-0.274,0.274-0.767,0.284-1.057-0.005l-7.253-7.248c-0.61-0.611-1.272-1.153-1.956-1.659
				c4.245-0.73,8.45-1.562,12.546-2.534c25.486-6.049,42.121-16.006,49.461-29.601c7.643-11.115,11.343-24.124,10.703-37.65
				c-0.733-15.471-7.212-29.977-18.242-40.845c-0.115-0.113-0.233-0.223-0.353-0.328c-3.29-2.888-8.278-2.651-11.281,0.539
				c-1.299,1.38-2.024,3.097-2.179,4.855c-2.468,16.857-16.559,29.633-33.644,30.441c-1.297,0.062-2.677,0.092-4.102,0.092
				c-16.837,0.001-39.386-4.286-61.192-8.432c-22.313-4.243-43.388-8.25-59.883-8.25c-1.455,0-2.873,0.033-4.217,0.096
				c-25.008,1.184-44.393,22.492-43.21,47.499c0.907,19.189,13.83,35.752,32.192,41.315c0.05,0.018,0.107,0.036,0.158,0.055
				c-2.827,0.736-5.505,2.191-7.717,4.401l-13.531,13.536c-1.524,1.524-2.38,3.592-2.38,5.748v87.496
				c-0.599,0.232-1.189,0.481-1.77,0.747H30.751C13.795,336.326,0,350.122,0,367.08c0,16.957,13.795,30.751,30.751,30.751h449.041
				c17.76,0,32.209-14.449,32.209-32.208C512,349.45,500.015,336.027,484.462,333.757z M436.709,252.526h0.003
				c4.548,0,8.819-1.765,12.026-4.971l7.253-7.256c0.277-0.276,0.783-0.275,1.058-0.002l11.153,11.155v81.963h-41.995v-84.528
				C429.187,251.238,432.844,252.526,436.709,252.526z M277.62,182.262c-0.758-16.053,11.684-29.731,27.738-30.492
				c1.088-0.051,2.247-0.077,3.448-0.077c11.553,0,26.322,2.309,42.365,5.245c-1.173,1.112-1.889,2.69-1.808,4.434
				c0.15,3.177,2.849,5.631,6.027,5.482c3.177-0.151,5.629-2.85,5.478-6.026c-0.037-0.782-0.231-1.515-0.544-2.182
				c1.768,0.335,3.543,0.671,5.329,1.011c22.547,4.287,45.862,8.721,64.231,8.72c1.679,0,3.317-0.037,4.869-0.112
				c13.838-0.655,26.31-6.727,35.284-16.2c0.956,2.062,3.084,3.453,5.494,3.338c3.177-0.152,5.63-2.849,5.481-6.025
				c-0.129-2.727-2.139-4.909-4.713-5.382c0.836-1.33,1.637-2.686,2.352-4.094c2.838,5.615,4.489,11.81,4.793,18.231
				c0.453,9.598-2.07,18.833-7.294,26.807c0.441-0.864,0.693-1.837,0.644-2.877c-0.152-3.176-2.847-5.63-6.027-5.481
				c-3.177,0.15-5.631,2.849-5.481,6.025c0.151,3.18,2.848,5.63,6.025,5.482c1.689-0.08,3.156-0.889,4.154-2.096
				c-0.223,0.313-0.443,0.63-0.621,0.974c-9.174,17.759-49.072,28.362-106.728,28.362c-35.164,0-63.193-4.022-69.005-6.272
				c-0.207-0.081-0.419-0.153-0.633-0.216C286.589,205.327,278.207,194.645,277.62,182.262z M409.117,247.556l0.83-0.83v86.689
				h-23.739v-84.826C392.882,254.16,402.854,253.819,409.117,247.556z M391.473,230.967c3.933-0.214,7.977-0.494,12.09-0.853
				l-5.944,5.945c-0.275,0.277-0.779,0.275-1.055,0.002L391.473,230.967z M369.5,247.554l0.447-0.447v86.307h-23.738v-85.169
				C352.88,254.158,363.11,253.941,369.5,247.554z M352.195,231.308c3.429,0.116,6.876,0.201,10.309,0.244l-4.5,4.504
				c-0.279,0.279-0.785,0.279-1.059,0.004L352.195,231.308z M324.84,229.595l-6.462,6.464c-0.275,0.278-0.78,0.275-1.056,0.002
				l-7.26-7.263c-0.392-0.392-0.801-0.758-1.222-1.105C313.576,228.406,318.99,229.048,324.84,229.595z M286.359,251.451h0.001
				l11.147-11.15c0.276-0.278,0.783-0.279,1.059-0.005l7.258,7.262c6.633,6.631,17.422,6.631,24.053-0.002l0.07-0.07v85.93h-43.588
				V251.451z M30.751,381.571c-7.99,0-14.491-6.501-14.491-14.491c0-7.991,6.501-14.493,14.491-14.493h221.495
				c-1.772,3.989-2.766,8.398-2.766,13.036c0,5.799,1.549,11.242,4.244,15.948H30.751z M479.791,381.571H281.687
				c-8.793,0-15.948-7.154-15.948-15.948c0-8.793,7.154-15.949,15.948-15.949h198.104c8.793,0,15.949,7.154,15.949,15.949
				C495.74,374.417,488.586,381.571,479.791,381.571z"></path>
			<path d="M303.961,190.24c-0.15-3.176-2.847-5.63-6.027-5.482c-3.176,0.151-5.631,2.851-5.482,6.025
				c0.151,3.18,2.85,5.631,6.027,5.482C301.659,196.114,304.112,193.418,303.961,190.24z"></path>
		</g>
	</g>
</g>
<g>
</g>
<g>
</g>
<g>
</g>
<g>
</g>
<g>
</g>
<g>
</g>
<g>
</g>
<g>
</g>
<g>
</g>
<g>
</g>
<g>
</g>
<g>
</g>
<g>
</g>
<g>
</g>
<g>
</g>
</svg>
