<svg version="1.1" id="Layer_1" xmlns="http://www.w3.org/2000/svg" xmlns:xlink="http://www.w3.org/1999/xlink" x="0px" y="0px" viewBox="0 0 487.954 487.954" style="enable-background:new 0 0 487.954 487.954;" xml:space="preserve">
<g transform="translate(0 -540.36)">
	<g>
		<g>
			<path d="M111.847,806.835c-24,0-42.9,18.5-42.9,42.1c0,23.6,19.2,42.9,42.9,42.9c23.2,0,42-19.3,42.1-42.9
				C153.947,825.734,135.047,806.835,111.847,806.835z M111.847,871.835c-12.6,0-22.9-10.3-22.9-22.9c0-12.4,10-22.1,22.9-22.1
				c12.1,0,22,9.9,22.1,22.1C133.947,861.335,123.847,871.835,111.847,871.835z"></path>
			<path d="M386.047,806.837c-23.6,0-42.1,18.5-42.1,42.1c0,24,18.5,42.9,42.1,42.9c23.7,0,42.9-19.3,42.9-42.9
				S410.147,806.837,386.047,806.837z M386.047,871.837c-12.4,0-22.1-10-22.1-22.9c0-12.6,9.5-22.1,22.1-22.1
				c12.9,0,22.9,9.7,22.9,22.1C408.947,861.537,398.647,871.837,386.047,871.837z"></path>
			<path d="M324.347,838.937l-152.2,10.4c-5.5,0.4-9.7,5.2-9.3,10.7c0.4,5.3,4.8,9.3,10,9.3h0c0.2,0,0.4,0,0.7,0l152.2-10.4
				c5.5-0.4,9.7-5.2,9.3-10.7S329.847,838.537,324.347,838.937z"></path>
			<path d="M485.247,733.637L485.247,733.637l-51.3-53.7c-1.9-2-4.5-3.1-7.2-3.1h-213.2c-2.3,0-4.6,0.8-6.3,2.3l-90.1,73.9
				l-99.4,21.2c-3.8,0.8-6.8,3.8-7.7,7.6l-9.8,43.3c-0.4,1.7-0.3,3.4,0.2,5l9.8,32.9c1.3,4.2,5.2,7.2,9.6,7.2h30.9
				c5.5,0,10-4.5,10-10s-4.5-10-10-10h-23.5l-6.9-23.3l7.8-34.5l94.6-20.1l345.3-10.1v58.1l-24.4,8.9c-5.2,1.9-7.9,7.6-6,12.8
				c1.9,5.2,7.6,7.9,12.8,6l30.9-11.3c3.9-1.4,6.6-5.2,6.6-9.4v-86.7C488.047,738.037,487.047,735.537,485.247,733.637z
				 M213.247,699.937v49.6l-62.7,1.8L213.247,699.937L213.247,699.937z M315.047,746.537l-81.7,2.4v-52.1l-0.1,0h81.8V746.537z
				 M407.047,743.837l-72,2.1v-49.1h72V743.837z M427.047,743.337v-41.7l38.7,40.5L427.047,743.337z"></path>
		</g>
	</g>
</g>
<g>
</g>
<g>
</g>
<g>
</g>
<g>
</g>
<g>
</g>
<g>
</g>
<g>
</g>
<g>
</g>
<g>
</g>
<g>
</g>
<g>
</g>
<g>
</g>
<g>
</g>
<g>
</g>
<g>
</g>
</svg>
