<svg version="1.1" id="Capa_1" xmlns="http://www.w3.org/2000/svg" xmlns:xlink="http://www.w3.org/1999/xlink" x="0px" y="0px" viewBox="0 0 480.822 480.822" style="enable-background:new 0 0 480.822 480.822;" xml:space="preserve">
<path d="M477.929,387.31l-69.874-95.563c-15.397-21.059-38.438-35.084-63.388-39.082c16.204-24.051,24.898-52.333,24.898-82.14
	c0-81.387-66.213-147.6-147.6-147.6c-81.387,0-147.6,66.213-147.6,147.6c0,28.511,8.148,56.186,23.564,80.032
	c13.469,20.835,31.868,37.851,53.524,49.637c4.003,16.208,18.601,28.373,35.779,28.755l88.164,1.959
	c2.29,0.051,3.729,1.29,4.383,2.024s1.72,2.307,1.507,4.588c-0.289,3.095-2.926,5.489-6.025,5.489c-0.031,0-0.063-0.001-0.094-0.001
	l-101.287-1.572c-5.584-0.087-11.035-2.089-15.348-5.637l-89.688-73.776c-17.121-14.085-42.383-12.424-57.514,3.779
	c-7.698,8.244-11.712,18.991-11.303,30.263s5.193,21.7,13.471,29.363l114.018,105.562c14.104,13.057,32.449,20.601,51.658,21.242
	l169.337,5.653c0.171,0.006,0.34,0.009,0.51,0.009c8.052,0,14.711-6.391,14.982-14.499c0.276-8.28-6.211-15.216-14.491-15.492
	l-169.336-5.653c-12.002-0.401-23.466-5.115-32.278-13.273L33.881,303.416c-2.379-2.202-3.754-5.199-3.872-8.439
	c-0.118-3.239,1.036-6.328,3.249-8.697c4.348-4.656,11.609-5.133,16.529-1.087l89.688,73.777
	c9.539,7.846,21.593,12.272,33.94,12.464l101.287,1.572c0.187,0.003,0.371,0.005,0.558,0.005
	c18.464-0.002,34.179-14.265,35.898-32.707c0.924-9.925-2.348-19.885-8.979-27.327s-16.15-11.838-26.116-12.06l-88.164-1.959
	c-3.98-0.089-7.286-3.271-7.524-7.245c-0.172-2.864,1.208-4.805,2.045-5.707s2.67-2.423,5.538-2.465l140.835-2.047
	c0.72-0.01,1.437-0.008,2.149,0.001c20.547,0.309,40.322,10.761,52.897,27.96l69.874,95.563c4.889,6.687,14.275,8.146,20.962,3.255
	C481.362,403.382,482.819,393.998,477.929,387.31z M187.521,253.545c-10.246,0.148-20.12,4.542-27.09,12.052
	c-1.001,1.079-1.925,2.217-2.786,3.398c-13.745-8.987-25.513-20.787-34.522-34.722c-12.272-18.983-18.758-41.026-18.758-63.746
	c0-64.845,52.755-117.6,117.6-117.6s117.6,52.755,117.6,117.6c0,30.667-11.543,59.312-32.622,81.283l-74.981,1.09v-5.448
	c19.482-4.542,34.043-22.039,34.043-42.884c0-20.846-14.561-38.343-34.043-42.885v-47.058c8.278,3.803,14.043,12.167,14.043,21.856
	c0,5.522,4.477,10,10,10s10-4.478,10-10c0-20.845-14.561-38.342-34.043-42.884v-6.932c0-5.522-4.477-10-10-10s-10,4.478-10,10v6.932
	c-19.482,4.542-34.043,22.039-34.043,42.884s14.561,38.341,34.043,42.884v47.059c-8.278-3.802-14.043-12.166-14.043-21.856
	c0-5.522-4.477-10-10-10s-10,4.478-10,10c0,20.845,14.561,38.341,34.043,42.884v5.738L187.521,253.545z M211.962,158.336
	c-8.278-3.802-14.043-12.166-14.043-21.856c0-9.689,5.765-18.053,14.043-21.856V158.336z M231.962,182.71
	c8.278,3.803,14.043,12.167,14.043,21.857s-5.765,18.054-14.043,21.856V182.71z"></path>
<g>
</g>
<g>
</g>
<g>
</g>
<g>
</g>
<g>
</g>
<g>
</g>
<g>
</g>
<g>
</g>
<g>
</g>
<g>
</g>
<g>
</g>
<g>
</g>
<g>
</g>
<g>
</g>
<g>
</g>
</svg>
